<svg xmlns="http://www.w3.org/2000/svg" viewBox="0 0 111.97 69.05"><defs><style>.cls-1{fill:#fff}</style></defs><g id="Layer_2" data-name="Layer 2"><g id="Layer_1-2" data-name="Layer 1"><path class="cls-1" d="M.01.01h111.95v69.04H.01z"/><path d="M111 1v67.07H1V1h110"/><path class="cls-1" d="M3.07 28.73h105.87v26.82H3.07zM3.07 3.05h105.88v23.59H3.07zM3.08 64.78v-5.91h8.22v1.39H6.38v.84h4.16v1.38H6.38v.92h5.11v1.38H3.08zM18.48 60.59a.63.63 0 0 0-.48-.4 3 3 0 0 0-.85-.11c-.72 0-1 .13-1 .35 0 .87 5.8.32 5.8 2.47 0 1.37-1.95 2-4.72 2s-4.4-.91-4.47-2h3.17a.79.79 0 0 0 .55.46 2.77 2.77 0 0 0 .94.15c.82 0 1.37-.15 1.37-.43 0-.89-5.8-.28-5.8-2.53 0-1.25 1.85-1.88 4.37-1.88 2.8 0 4.07.83 4.31 1.86zM26.85 61.43h1.3c1 0 1.57-.15 1.57-.56s-.56-.62-1.33-.62h-1.54zm0 1.29v2.06h-3.31v-5.91h4.77c3.35 0 4.46.54 4.46 1.69 0 .68-.51 1.25-1.69 1.45 1.06.22 1.71.36 1.71 1.55 0 .77 0 1 .35 1v.18h-3.35a2.3 2.3 0 0 1-.17-1c0-.77-.22-1-1.76-1zM38.1 60.25v1h1.38c.66 0 1.14-.18 1.14-.51s-.65-.48-1.34-.48zm0 2.06v1.09h1.45c.82 0 1.43-.1 1.43-.54s-.77-.55-1.82-.55zm-3.3 2.47v-5.91h4.82c2.28 0 4.08.32 4.08 1.49 0 .61-.67 1-1.32 1.28 1.09.17 1.68.72 1.68 1.36 0 1.31-1.72 1.78-4.34 1.78z"/><path d="M58.72 42.54l-.81-2.82-5.25 1.34.81 2.82 5.25-1.34zM73.63 49.2h-1.19v.65h1.19V51h.67v-1.15h1.19v-.65H74.3v-1.14h-.67zm-1.89-.28c0-2.28-1.23-3.62-3.26-3.62-2.75 0-3.43 1.86-3.43 3.62 0 2.13 1.08 3.61 3.35 3.61s3.34-1.48 3.34-3.61M60.22 34.49l16.65-4.92 1.67 5.22-8.34 2.47.68 2.13 7.71-2.27 1.66 5.22-7.7 2.28.72 2.25 8.61-2.55 1.68 5.22-16.92 5-6.42-20.05m.64 13.22a5.57 5.57 0 0 0 2.06-1v5.46h1.57v-6.84H63a5.49 5.49 0 0 1-2.11 1.05v1.33"/><path d="M66.49 48.85c0-2.29.92-2.82 2-2.82s1.84.88 1.83 2.89c0 1.24-.35 2.78-1.85 2.77s-2-1.17-2-2.84M28.5 34.49l16.65-4.92 1.67 5.22-8.34 2.47.68 2.13 7.71-2.27 1.66 5.22-7.7 2.28.72 2.25 8.61-2.55 1.68 5.22-16.92 5.01-6.42-20.06M5.14 13.36V5.11h2.75v1.27H6.2v2h1.55v1.3H6.2v2.41h1.74v1.27zM8.22 5.11h1.09l.78 6 .88-6h1l-1.33 8.25H9.46zM12.49 13.36V5.11h2.74v1.27h-1.69v2h1.56v1.3h-1.56v2.41h1.75v1.27zM17 13.36h-1V5.11h1.94a1 1 0 0 1 .86.55 3.28 3.28 0 0 1 .31 1.61 3.77 3.77 0 0 1-.21 1.34 1 1 0 0 1-.72.68l.24.06a.69.69 0 0 1 .3.21 1.38 1.38 0 0 1 .26.47 2.62 2.62 0 0 1 .11.88v1.98a3.57 3.57 0 0 0 .06.44h-1a2.9 2.9 0 0 1-.1-.79v-1.5a2.36 2.36 0 0 0-.07-.58.91.91 0 0 0-.22-.4.65.65 0 0 0-.46-.14H17zm0-4.68h.46a.32.32 0 0 0 .26-.12.74.74 0 0 0 .17-.29 2.15 2.15 0 0 0 .09-.4v-.41a1.9 1.9 0 0 0-.14-.84.45.45 0 0 0-.4-.24H17zM20.66 10.5l-1.32-5.39h1.15l.75 3.49.76-3.49h1.07l-1.4 5.39v2.86h-1.01zM25.28 13.5a1.35 1.35 0 0 1-1-.36 2 2 0 0 1-.51-1 6.12 6.12 0 0 1-.19-1.37V9.2 7.61a5.94 5.94 0 0 1 .19-1.36 2 2 0 0 1 .51-1 1.35 1.35 0 0 1 1-.36 1.37 1.37 0 0 1 1 .36 2.2 2.2 0 0 1 .51 1 5.94 5.94 0 0 1 .21 1.4v3.16a6.12 6.12 0 0 1-.19 1.37 2.2 2.2 0 0 1-.51 1 1.37 1.37 0 0 1-1.02.32zm0-1.23a.43.43 0 0 0 .36-.18 1.38 1.38 0 0 0 .2-.55 5.43 5.43 0 0 0 .09-.94V9.24 7.87a5.54 5.54 0 0 0-.09-.94 1.38 1.38 0 0 0-.2-.55.45.45 0 0 0-.36-.17.43.43 0 0 0-.35.17 1.24 1.24 0 0 0-.2.55 5.54 5.54 0 0 0-.09.94V10.6a5.43 5.43 0 0 0 .09.94 1.24 1.24 0 0 0 .2.55.41.41 0 0 0 .35.18zM27.86 13.36V5.11h1.42l1.33 5.71V5.11h1v8.25h-1.39l-1.37-6v6zM32.49 13.36V5.11h2.74v1.27h-1.69v2h1.56v1.3h-1.56v2.41h1.75v1.27zM37.07 7.59h.39v-.91l1-.72v1.63H39v1h-.5V12a.8.8 0 0 0 0 .23.34.34 0 0 0 .09.14.36.36 0 0 0 .19.05H38.95v1h-.51a.76.76 0 0 1-.5-.15 1.07 1.07 0 0 1-.29-.35 1.33 1.33 0 0 1-.13-.43 1.7 1.7 0 0 1 0-.35V8.58h-.39zM40.75 13.48a1.19 1.19 0 0 1-.76-.23 1.44 1.44 0 0 1-.44-.64 4.06 4.06 0 0 1-.19-1v-1.24-1.12a3.57 3.57 0 0 1 .18-.94 1.53 1.53 0 0 1 .46-.6 1.14 1.14 0 0 1 .77-.23 1.16 1.16 0 0 1 .77.23 1.51 1.51 0 0 1 .43.63 3.55 3.55 0 0 1 .19.94V11.64a3.6 3.6 0 0 1-.2 1 1.42 1.42 0 0 1-.43.64 1.21 1.21 0 0 1-.78.2zm0-1a.29.29 0 0 0 .22-.09.6.6 0 0 0 .14-.32 4.13 4.13 0 0 0 .07-.65v-1.08-.79a3.54 3.54 0 0 0-.05-.55.83.83 0 0 0-.13-.38.29.29 0 0 0-.24-.12.29.29 0 0 0-.25.12.83.83 0 0 0-.13.34 2.12 2.12 0 0 0-.06.56v1.87a3.2 3.2 0 0 0 .07.65.6.6 0 0 0 .13.32.32.32 0 0 0 .23.09zM44.47 13.36V5.11h2.74v1.27h-1.69v2h1.56v1.3h-1.56v2.41h1.75v1.27zM47.54 5.11h1.1l.78 6 .87-6h1L50 13.36h-1.22zM51.82 13.36V5.11h2.74v1.27h-1.69v2h1.55v1.3h-1.55v2.41h1.74v1.27zM56.32 13.36h-1V5.11h1.94a1 1 0 0 1 .86.55 3.27 3.27 0 0 1 .32 1.61 3.77 3.77 0 0 1-.21 1.34 1.06 1.06 0 0 1-.72.68l.23.06a.71.71 0 0 1 .31.21 1.57 1.57 0 0 1 .26.47 2.91 2.91 0 0 1 .11.88v1.98a1.69 1.69 0 0 0 .06.44h-1a2.9 2.9 0 0 1-.11-.79v-.81-.69a2 2 0 0 0-.07-.58.82.82 0 0 0-.22-.4.63.63 0 0 0-.46-.14h-.27zm0-4.68h.47a.34.34 0 0 0 .26-.12.73.73 0 0 0 .16-.29 1.24 1.24 0 0 0 .09-.4 2.88 2.88 0 0 0 0-.41 1.76 1.76 0 0 0-.14-.84.43.43 0 0 0-.39-.24h-.47zM60 10.5l-1.33-5.39h1.14l.76 3.49.8-3.49h1.07L61 10.5v2.86h-1zM64.61 13.5a1.33 1.33 0 0 1-1-.36 2.12 2.12 0 0 1-.52-1 6.76 6.76 0 0 1-.19-1.37V9.2 7.61a6.55 6.55 0 0 1 .19-1.36 2.12 2.12 0 0 1 .52-1 1.33 1.33 0 0 1 1-.36 1.35 1.35 0 0 1 1 .36 2 2 0 0 1 .51 1 5.94 5.94 0 0 1 .19 1.36v3.16a6.12 6.12 0 0 1-.19 1.37 2 2 0 0 1-.51 1 1.35 1.35 0 0 1-1 .36zm0-1.23a.4.4 0 0 0 .35-.18 1.37 1.37 0 0 0 .21-.55 8.58 8.58 0 0 0 .09-.94V9.24 7.87a8.84 8.84 0 0 0-.09-.94 1.37 1.37 0 0 0-.17-.55.41.41 0 0 0-.35-.17.45.45 0 0 0-.36.17 1.55 1.55 0 0 0-.2.55 5.54 5.54 0 0 0-.09.94V10.6a5.43 5.43 0 0 0 .09.94 1.55 1.55 0 0 0 .2.55.43.43 0 0 0 .32.18zM67.18 13.36V5.11h1.42l1.34 5.71V5.11h1v8.25h-1.39l-1.37-6v6zM71.82 13.36V5.11h2.74v1.27h-1.69v2h1.55v1.3h-1.55v2.41h1.74v1.27zM76.74 6.62a4.38 4.38 0 0 0 .51-.54 3.62 3.62 0 0 0 .43-.7h.93v8h-1V7.22a4.93 4.93 0 0 1-.39.49l-.43.41zM81 5.28a1.19 1.19 0 0 1 .73.21 1.28 1.28 0 0 1 .42.68 5.35 5.35 0 0 1 .2 1.26q.06.78.06 1.92v1.7a5.64 5.64 0 0 1-.18 1.29 1.76 1.76 0 0 1-.42.83 1.17 1.17 0 0 1-1.54 0 1.76 1.76 0 0 1-.42-.83 5.64 5.64 0 0 1-.18-1.29v-1.7c0-.62 0-1.4.05-1.92a5.35 5.35 0 0 1 .2-1.26 1.28 1.28 0 0 1 .42-.68 1.19 1.19 0 0 1 .66-.21zm0 1.17a.28.28 0 0 0-.24.11 1 1 0 0 0-.13.43v3.86a8.8 8.8 0 0 0 0 .89 1.22 1.22 0 0 0 .13.44.27.27 0 0 0 .23.12.26.26 0 0 0 .23-.12 1 1 0 0 0 .13-.44 8.29 8.29 0 0 0 .06-.89V9.37v-1.5a8.76 8.76 0 0 0 0-.88 1 1 0 0 0-.13-.43.3.3 0 0 0-.28-.11zM83.93 6.6h.78v2.25h1.17v1.27h-1.17v2.25h-.78v-2.25h-1.18V8.85h1.18zM8.56 16.34v1.37H7.39v6.89h-1v-6.89H5.18v-1.37zM10.73 24.73a1.35 1.35 0 0 1-1-.36 2.1 2.1 0 0 1-.51-1A6 6 0 0 1 9 22.05v-1.58-1.59a6 6 0 0 1 .19-1.36 2.07 2.07 0 0 1 .51-.95 1.35 1.35 0 0 1 1-.36 1.36 1.36 0 0 1 1 .36 2.16 2.16 0 0 1 .51.95 6 6 0 0 1 .19 1.36v3.17a6 6 0 0 1-.19 1.36 2.2 2.2 0 0 1-.51 1 1.36 1.36 0 0 1-.97.32zm0-1.23a.43.43 0 0 0 .36-.18 1.39 1.39 0 0 0 .2-.54 5.54 5.54 0 0 0 .09-.94v-1.37-1.37a5.54 5.54 0 0 0-.09-.94 1.39 1.39 0 0 0-.2-.54.43.43 0 0 0-.36-.18.41.41 0 0 0-.35.18 1.25 1.25 0 0 0-.2.54 5.54 5.54 0 0 0-.09.94v2.74a5.54 5.54 0 0 0 .09.94 1.25 1.25 0 0 0 .2.54.41.41 0 0 0 .35.18zM13.32 16.34h1.75a1.2 1.2 0 0 1 .84.28 1.8 1.8 0 0 1 .5.8 6.5 6.5 0 0 1 .24 1.28c0 .51.06 1.08.06 1.72v1.65a5.66 5.66 0 0 1-.13.92 2.7 2.7 0 0 1-.28.8 1.61 1.61 0 0 1-.48.58 1.22 1.22 0 0 1-.75.23h-1.75zm1 7h.51a.5.5 0 0 0 .39-.16 1.11 1.11 0 0 0 .23-.5 5.5 5.5 0 0 0 .11-.88v-1.32-1.09a5 5 0 0 0-.08-.91 1.55 1.55 0 0 0-.21-.62.47.47 0 0 0-.43-.24h-.54zM19.23 24.73a1.35 1.35 0 0 1-1-.36 2.1 2.1 0 0 1-.51-1 6 6 0 0 1-.19-1.36v-1.58-1.59a6 6 0 0 1 .19-1.36 2.07 2.07 0 0 1 .51-.95 1.58 1.58 0 0 1 2 0 2.16 2.16 0 0 1 .51.95 6 6 0 0 1 .19 1.36v3.17a6 6 0 0 1-.19 1.36 2.2 2.2 0 0 1-.51 1 1.36 1.36 0 0 1-1 .36zm0-1.23a.43.43 0 0 0 .36-.18 1.39 1.39 0 0 0 .2-.54 5.54 5.54 0 0 0 .09-.94v-1.37-1.37a5.54 5.54 0 0 0-.09-.94 1.39 1.39 0 0 0-.2-.54.43.43 0 0 0-.36-.18.42.42 0 0 0-.35.18 1.25 1.25 0 0 0-.2.54 5.54 5.54 0 0 0-.09.94v2.74a5.54 5.54 0 0 0 .09.94 1.25 1.25 0 0 0 .2.54.42.42 0 0 0 .35.18zM24.92 22.34a4.35 4.35 0 0 1-.16 1.28 1.76 1.76 0 0 1-.42.72 1.28 1.28 0 0 1-.56.32 2.68 2.68 0 0 1-.62.07 1.33 1.33 0 0 1-.78-.21 1.38 1.38 0 0 1-.47-.59 3.49 3.49 0 0 1-.21-.86 6.84 6.84 0 0 1 0-1h1v.56a2 2 0 0 0 .07.46.6.6 0 0 0 .18.31.45.45 0 0 0 .33.12.43.43 0 0 0 .4-.26 1.47 1.47 0 0 0 .13-.68 1.32 1.32 0 0 0-.15-.64 2.78 2.78 0 0 0-.4-.52c-.16-.16-.32-.33-.51-.49a4 4 0 0 1-.5-.57 2.86 2.86 0 0 1-.39-.76 3 3 0 0 1-.16-1 4.4 4.4 0 0 1 .08-.91 2 2 0 0 1 .27-.73 1.33 1.33 0 0 1 .5-.5 1.63 1.63 0 0 1 .8-.18 1.25 1.25 0 0 1 1.14.59 3.36 3.36 0 0 1 .32 1.89h-1a3.46 3.46 0 0 0 0-.46 1.67 1.67 0 0 0-.07-.4.74.74 0 0 0-.14-.28.33.33 0 0 0-.26-.11.43.43 0 0 0-.39.22 1.19 1.19 0 0 0-.15.66 1.24 1.24 0 0 0 .2.61 2.1 2.1 0 0 0 .39.51l.51.46a3.86 3.86 0 0 1 .51.55 2.66 2.66 0 0 1 .39.75 3.17 3.17 0 0 1 .12 1.07zM29.83 23.52v1.08H29v-.77a1.69 1.69 0 0 1-.38.66.72.72 0 0 1-.54.22.64.64 0 0 1-.43-.15 1.05 1.05 0 0 1-.29-.39 2.3 2.3 0 0 1-.16-.59 5.27 5.27 0 0 1-.05-.71 3.32 3.32 0 0 1 .15-1.12 1.27 1.27 0 0 1 .41-.59 1.29 1.29 0 0 1 .58-.23h.67v-.44-.34a1.86 1.86 0 0 0-.05-.27.43.43 0 0 0-.12-.17.32.32 0 0 0-.22-.07.28.28 0 0 0-.2.08.4.4 0 0 0-.11.19 1.78 1.78 0 0 0-.05.28v.33h-1a3.47 3.47 0 0 1 .1-.87 1.15 1.15 0 0 1 .27-.53.9.9 0 0 1 .4-.3 1.83 1.83 0 0 1 1.26.07 1.13 1.13 0 0 1 .42.42 1.67 1.67 0 0 1 .19.62 5.74 5.74 0 0 1 0 .74zm-1-1.71h-.34a.52.52 0 0 0-.27.1.55.55 0 0 0-.18.28 2.22 2.22 0 0 0-.06.59v.32a1.16 1.16 0 0 0 0 .29.65.65 0 0 0 .11.22.23.23 0 0 0 .19.09.33.33 0 0 0 .32-.22 1.47 1.47 0 0 0 .14-.5 3.25 3.25 0 0 0 0-.63zM35.23 16.34v1.37h-1.17v6.89H33v-6.89h-1.16v-1.37zM37.4 24.73a1.36 1.36 0 0 1-1-.36 2.2 2.2 0 0 1-.51-1 6 6 0 0 1-.19-1.36v-1.58-1.59a6 6 0 0 1 .19-1.36 2.16 2.16 0 0 1 .51-.95 1.58 1.58 0 0 1 2 0 2.07 2.07 0 0 1 .51.95 6 6 0 0 1 .19 1.36v3.17a6 6 0 0 1-.19 1.36 2.1 2.1 0 0 1-.51 1 1.35 1.35 0 0 1-1 .36zm0-1.23a.42.42 0 0 0 .35-.18 1.25 1.25 0 0 0 .2-.54 5.54 5.54 0 0 0 .09-.94v-1.37-1.37a5.54 5.54 0 0 0-.09-.94 1.25 1.25 0 0 0-.2-.54.42.42 0 0 0-.35-.18.43.43 0 0 0-.36.18 1.39 1.39 0 0 0-.2.54 5.54 5.54 0 0 0-.09.94v2.74a5.54 5.54 0 0 0 .09.94 1.39 1.39 0 0 0 .2.54.43.43 0 0 0 .36.18zM40 16.34h1.76a1.19 1.19 0 0 1 .83.28 1.72 1.72 0 0 1 .5.8 5.31 5.31 0 0 1 .24 1.28c0 .51.06 1.08.06 1.72v1.65a9.26 9.26 0 0 1-.13.92 3 3 0 0 1-.28.8 1.74 1.74 0 0 1-.49.58 1.21 1.21 0 0 1-.74.23H40zm1.06 7h.5a.5.5 0 0 0 .39-.16 1 1 0 0 0 .23-.5 4.45 4.45 0 0 0 .12-.88v-1.32-1.09a6 6 0 0 0-.08-.91 1.72 1.72 0 0 0-.22-.62.47.47 0 0 0-.42-.24H41zM45.9 24.73a1.33 1.33 0 0 1-1-.36 2.12 2.12 0 0 1-.52-1 6.65 6.65 0 0 1-.19-1.36v-1.58-1.59a6.65 6.65 0 0 1 .19-1.36 2.08 2.08 0 0 1 .52-.95 1.33 1.33 0 0 1 1-.36 1.35 1.35 0 0 1 1 .36 2.08 2.08 0 0 1 .52.95 6.69 6.69 0 0 1 .18 1.36v3.17a6.69 6.69 0 0 1-.18 1.36 2.12 2.12 0 0 1-.52 1 1.35 1.35 0 0 1-1 .36zm0-1.23a.4.4 0 0 0 .35-.18 1.38 1.38 0 0 0 .21-.54 8.84 8.84 0 0 0 .09-.94v-1.37-1.37a8.84 8.84 0 0 0-.09-.94 1.38 1.38 0 0 0-.21-.54.4.4 0 0 0-.35-.18.43.43 0 0 0-.36.18 1.57 1.57 0 0 0-.2.54 6.81 6.81 0 0 0-.09.94v2.74a6.81 6.81 0 0 0 .09.94 1.57 1.57 0 0 0 .2.54.43.43 0 0 0 .36.18zM51.58 22.34a4 4 0 0 1-.16 1.28 1.75 1.75 0 0 1-.41.72 1.25 1.25 0 0 1-.57.32 2.6 2.6 0 0 1-.61.07 1.23 1.23 0 0 1-1.25-.8 2.78 2.78 0 0 1-.21-.86 6.79 6.79 0 0 1 0-1h1v.56a2.05 2.05 0 0 0 .06.46.67.67 0 0 0 .18.31.45.45 0 0 0 .34.12.42.42 0 0 0 .39-.26 1.46 1.46 0 0 0 .14-.68 1.32 1.32 0 0 0-.16-.64 2.36 2.36 0 0 0-.32-.54c-.16-.16-.33-.33-.51-.49a4 4 0 0 1-.51-.57 2.86 2.86 0 0 1-.39-.76 3 3 0 0 1-.16-1 5.22 5.22 0 0 1 .08-.91 2.52 2.52 0 0 1 .27-.73 1.44 1.44 0 0 1 .51-.5 1.61 1.61 0 0 1 .8-.18 1.25 1.25 0 0 1 1.14.59 3.55 3.55 0 0 1 .32 1.89h-1v-.46a2.38 2.38 0 0 0-.07-.4.63.63 0 0 0-.15-.28.31.31 0 0 0-.25-.11.44.44 0 0 0-.4.22 1.2 1.2 0 0 0-.14.66 1.34 1.34 0 0 0 .15.66 2.43 2.43 0 0 0 .4.51c.15.15.32.3.5.46a3.36 3.36 0 0 1 .51.55 2.66 2.66 0 0 1 .39.75 3.17 3.17 0 0 1 .09 1.04zM54.79 17.83h.78v2.25h1.17v1.27h-1.17v2.25h-.78v-2.25h-1.18v-1.27h1.18zM57.26 17.85a5.3 5.3 0 0 0 .51-.54 3.53 3.53 0 0 0 .43-.69h.93v8h-1.05v-6.16a4.63 4.63 0 0 1-.4.48l-.42.41zM61.55 16.52a1.14 1.14 0 0 1 .72.2 1.3 1.3 0 0 1 .43.69 5.35 5.35 0 0 1 .2 1.25q.06.78.06 1.92v1.7a5.74 5.74 0 0 1-.18 1.3 1.81 1.81 0 0 1-.42.83 1 1 0 0 1-.77.29 1 1 0 0 1-.77-.29 1.81 1.81 0 0 1-.42-.83 5.74 5.74 0 0 1-.18-1.3v-1.7c0-.63 0-1.4.06-1.92a5.35 5.35 0 0 1 .2-1.25 1.36 1.36 0 0 1 .42-.69 1.19 1.19 0 0 1 .65-.2zm0 1.16a.28.28 0 0 0-.24.11 1 1 0 0 0-.13.43 8.8 8.8 0 0 0 0 .89V22.08a6.58 6.58 0 0 0 0 .89 1 1 0 0 0 .13.44.28.28 0 0 0 .46 0 1.15 1.15 0 0 0 .13-.44 6.58 6.58 0 0 0 .05-.89V19.11a8.8 8.8 0 0 0 0-.89 1 1 0 0 0-.13-.43.3.3 0 0 0-.27-.11z"/><path class="cls-1" d="M75.48 65.2a1.87 1.87 0 0 1-1.48-.67 3.24 3.24 0 0 1-.62-2.1 3.36 3.36 0 0 1 .62-2.14 1.72 1.72 0 0 1 1.41-.7 1.78 1.78 0 0 1 1.5.72 3.73 3.73 0 0 1 .61 2.32v.26h-2.84a1.3 1.3 0 0 0 .25.79.69.69 0 0 0 .56.3c.31 0 .51-.22.63-.66v-.1l1.31.27v.1a2.27 2.27 0 0 1-.73 1.21 1.91 1.91 0 0 1-1.22.4zm-.79-3.35h1.48a1.25 1.25 0 0 0-.24-.74.6.6 0 0 0-1 0 1.2 1.2 0 0 0-.24.74zM80.42 65.2a2.23 2.23 0 0 1-1.4-.43 2 2 0 0 1-.72-1.24v-.1l1.32-.25v.1a.76.76 0 0 0 .8.73.86.86 0 0 0 .54-.13.4.4 0 0 0 .17-.33.3.3 0 0 0-.07-.2.79.79 0 0 0-.31-.14 4.81 4.81 0 0 1-1.8-.72 1.54 1.54 0 0 1-.5-1.21 1.62 1.62 0 0 1 .49-1.22 1.93 1.93 0 0 1 1.39-.47 2.19 2.19 0 0 1 1.33.35A1.86 1.86 0 0 1 82.3 61v.09l-1.25.29v-.1a.62.62 0 0 0-.7-.54 1 1 0 0 0-.53.1.25.25 0 0 0-.13.22.23.23 0 0 0 .12.2 3.51 3.51 0 0 0 1 .34 2.8 2.8 0 0 1 1.32.67 1.56 1.56 0 0 1 .36 1.07 1.72 1.72 0 0 1-.54 1.3 2 2 0 0 1-1.53.56zM85 65.08h-1.32v-5.36h1.24v.45a1.44 1.44 0 0 1 .32-.38.83.83 0 0 1 .55-.2 1.36 1.36 0 0 1 .79.28h.06l-.42 1.4-.11-.09c-.32-.26-.6-.26-.81-.06a1.1 1.1 0 0 0-.22.57 11.66 11.66 0 0 0-.08 1.69zM89.81 65.2A1.43 1.43 0 0 1 89 65a2.2 2.2 0 0 1-.45-.42v.54h-1.2v-7.37h1.32v2.38a1.81 1.81 0 0 1 .41-.34 1.39 1.39 0 0 1 .72-.2 1.62 1.62 0 0 1 1.34.72 3.35 3.35 0 0 1 .54 2.06 3.48 3.48 0 0 1-.55 2.08 1.63 1.63 0 0 1-1.32.75zm-.32-4.36a.71.71 0 0 0-.58.34 1.88 1.88 0 0 0-.25 1.1 3.07 3.07 0 0 0 .12 1 1.06 1.06 0 0 0 .33.49.66.66 0 0 0 .43.16.64.64 0 0 0 .54-.34 2.1 2.1 0 0 0 .25-1.17 2.2 2.2 0 0 0-.25-1.22.68.68 0 0 0-.59-.36zM94.2 65.08h-1.32v-1.57h1.32zM97.68 65.2a2.08 2.08 0 0 1-1.68-.76 3.14 3.14 0 0 1-.65-2.12 3.21 3.21 0 0 1 .31-1.42 2.38 2.38 0 0 1 .83-1 2 2 0 0 1 1.14-.33 2 2 0 0 1 1.69.85 3.19 3.19 0 0 1 .6 1.93 3.56 3.56 0 0 1-.31 1.48 2.42 2.42 0 0 1-.84 1 2.05 2.05 0 0 1-1.09.37zm0-4.29a.81.81 0 0 0-.65.36 2.4 2.4 0 0 0 0 2.25.8.8 0 0 0 .66.37.77.77 0 0 0 .65-.37 2.4 2.4 0 0 0 0-2.25.83.83 0 0 0-.67-.36zM102.41 65.08h-1.32v-5.36h1.24v.45a1.44 1.44 0 0 1 .32-.38.83.83 0 0 1 .55-.2 1.36 1.36 0 0 1 .79.28h.06l-.42 1.4-.11-.09c-.32-.26-.6-.26-.81-.06a1.06 1.06 0 0 0-.22.57 11.66 11.66 0 0 0-.08 1.65zM106.78 67.17a2.89 2.89 0 0 1-1.16-.19 1.51 1.51 0 0 1-.68-.59 1.71 1.71 0 0 1-.24-.9v-.29l1.48.22v.08a.47.47 0 0 0 .15.33.64.64 0 0 0 .4.1 1.19 1.19 0 0 0 .55-.11.5.5 0 0 0 .21-.24 2.1 2.1 0 0 0 .08-.68v-.44a1.91 1.91 0 0 1-.42.39 1.35 1.35 0 0 1-.75.23 1.55 1.55 0 0 1-1.27-.68 4 4 0 0 1 0-4.09 1.65 1.65 0 0 1 1.34-.72 1.4 1.4 0 0 1 .78.23 1.75 1.75 0 0 1 .42.4v-.5h1.25v4.73a4.73 4.73 0 0 1-.21 1.65 1.66 1.66 0 0 1-.67.8 2.41 2.41 0 0 1-1.26.27zm0-6.33a.69.69 0 0 0-.58.34 2 2 0 0 0-.25 1.11 2.11 2.11 0 0 0 .25 1.15.68.68 0 0 0 .56.33.75.75 0 0 0 .61-.34 1.86 1.86 0 0 0 .26-1.11 2 2 0 0 0-.25-1.14.72.72 0 0 0-.65-.34z"/></g></g></svg>